<svg width="403" height="193" viewBox="0 0 403 193" fill="none" xmlns="http://www.w3.org/2000/svg">
<path d="M39.072 101.232H20.256C19.552 103.536 18.88 105.808 18.24 108.048C17.664 110.288 17.152 112.272 16.704 114C15.872 114.256 15.008 114.48 14.112 114.672C13.216 114.864 12.128 114.96 10.848 114.96C8.032 114.96 5.888 114.48 4.416 113.52C3.008 112.496 2.304 111.056 2.304 109.2C2.304 108.304 2.432 107.44 2.688 106.608C2.944 105.776 3.232 104.816 3.552 103.728C4 102 4.64 99.856 5.472 97.296C6.304 94.736 7.2 91.984 8.16 89.04C9.184 86.032 10.24 82.96 11.328 79.824C12.416 76.688 13.472 73.712 14.496 70.896C15.52 68.016 16.448 65.392 17.28 63.024C18.112 60.656 18.816 58.768 19.392 57.36C20.352 56.784 21.824 56.24 23.808 55.728C25.856 55.216 27.872 54.96 29.856 54.96C32.736 54.96 35.264 55.376 37.44 56.208C39.68 56.976 41.12 58.288 41.76 60.144C42.976 63.536 44.288 67.472 45.696 71.952C47.104 76.432 48.512 81.04 49.92 85.776C51.392 90.512 52.8 95.184 54.144 99.792C55.488 104.4 56.672 108.528 57.696 112.176C56.992 113.008 55.936 113.68 54.528 114.192C53.184 114.704 51.552 114.96 49.632 114.96C46.88 114.96 44.928 114.48 43.776 113.52C42.688 112.56 41.888 111.056 41.376 109.008L39.072 101.232ZM29.76 68.4C28.864 71.28 27.744 74.576 26.4 78.288C25.12 81.936 23.904 85.68 22.752 89.52H36.48C35.392 85.488 34.272 81.648 33.12 78C32.032 74.288 31.104 71.088 30.336 68.4H29.76ZM94.7633 84.528C94.7633 82.288 94.0913 80.624 92.7473 79.536C91.4033 78.448 89.6113 77.904 87.3713 77.904C85.8353 77.904 84.4273 78.096 83.1473 78.48C81.8673 78.864 80.6833 79.344 79.5953 79.92V113.904C78.9553 114.096 78.0593 114.256 76.9073 114.384C75.7553 114.576 74.4753 114.672 73.0673 114.672C70.1873 114.672 68.1073 114.224 66.8273 113.328C65.5473 112.368 64.9073 110.544 64.9073 107.856V78.192C64.9073 76.528 65.2593 75.184 65.9633 74.16C66.6673 73.136 67.6593 72.176 68.9393 71.28C70.9873 69.808 73.6113 68.624 76.8113 67.728C80.0753 66.832 83.6593 66.384 87.5633 66.384C94.5393 66.384 99.9153 67.92 103.691 70.992C107.531 74.064 109.451 78.448 109.451 84.144V113.904C108.747 114.096 107.819 114.256 106.667 114.384C105.515 114.576 104.235 114.672 102.827 114.672C99.9473 114.672 97.8673 114.224 96.5873 113.328C95.3713 112.368 94.7633 110.544 94.7633 107.856V84.528ZM135.002 98.736C135.002 100.528 135.578 101.84 136.73 102.672C137.882 103.44 139.482 103.824 141.53 103.824C142.49 103.824 143.514 103.728 144.602 103.536C145.69 103.28 146.618 102.992 147.386 102.672C147.962 103.312 148.442 104.048 148.826 104.88C149.21 105.712 149.402 106.672 149.402 107.76C149.402 110 148.506 111.856 146.714 113.328C144.986 114.736 141.946 115.44 137.594 115.44C132.218 115.44 128.026 114.224 125.018 111.792C122.01 109.296 120.506 105.264 120.506 99.696V56.592C121.21 56.4 122.138 56.208 123.29 56.016C124.442 55.76 125.69 55.632 127.034 55.632C129.85 55.632 131.866 56.144 133.082 57.168C134.362 58.128 135.002 59.92 135.002 62.544V68.784H148.25C148.57 69.424 148.89 70.256 149.21 71.28C149.53 72.24 149.69 73.264 149.69 74.352C149.69 76.4 149.21 77.872 148.25 78.768C147.354 79.664 146.17 80.112 144.698 80.112H135.002V98.736ZM172.979 113.904C172.339 114.096 171.443 114.256 170.291 114.384C169.139 114.576 167.859 114.672 166.451 114.672C163.571 114.672 161.491 114.224 160.211 113.328C158.995 112.368 158.387 110.544 158.387 107.856V68.4C159.027 68.208 159.923 68.016 161.075 67.824C162.227 67.632 163.507 67.536 164.915 67.536C167.795 67.536 169.843 68.016 171.059 68.976C172.339 69.936 172.979 71.76 172.979 74.448V113.904ZM157.523 54.576C157.523 52.4 158.259 50.544 159.731 49.008C161.267 47.472 163.251 46.704 165.683 46.704C168.115 46.704 170.067 47.472 171.539 49.008C173.075 50.544 173.843 52.4 173.843 54.576C173.843 56.816 173.075 58.704 171.539 60.24C170.067 61.776 168.115 62.544 165.683 62.544C163.251 62.544 161.267 61.776 159.731 60.24C158.259 58.704 157.523 56.816 157.523 54.576Z" fill="black"/>
<path d="M212.656 55.824C213.04 56.464 213.392 57.296 213.712 58.32C214.032 59.344 214.192 60.464 214.192 61.68C214.192 63.792 213.712 65.36 212.752 66.384C211.856 67.408 210.576 67.92 208.912 67.92H187.6V80.496H209.392C209.776 81.2 210.128 82.032 210.448 82.992C210.832 83.952 211.024 85.072 211.024 86.352C211.024 88.464 210.544 90.032 209.584 91.056C208.624 92.016 207.344 92.496 205.744 92.496H187.792V113.904C187.088 114.096 186.096 114.256 184.816 114.384C183.536 114.576 182.192 114.672 180.784 114.672C177.776 114.672 175.664 114.16 174.448 113.136C173.296 112.112 172.72 110.256 172.72 107.568V63.792C172.72 61.36 173.424 59.44 174.832 58.032C176.304 56.56 178.256 55.824 180.688 55.824H212.656ZM266.695 90.864C266.695 94.64 266.119 98.064 264.967 101.136C263.815 104.144 262.151 106.704 259.975 108.816C257.863 110.928 255.303 112.56 252.295 113.712C249.287 114.864 245.927 115.44 242.215 115.44C238.503 115.44 235.111 114.896 232.039 113.808C229.031 112.656 226.439 111.024 224.263 108.912C222.151 106.8 220.519 104.24 219.367 101.232C218.215 98.16 217.639 94.704 217.639 90.864C217.639 87.152 218.215 83.792 219.367 80.784C220.583 77.712 222.247 75.12 224.359 73.008C226.535 70.896 229.127 69.264 232.135 68.112C235.207 66.96 238.567 66.384 242.215 66.384C245.863 66.384 249.191 66.96 252.199 68.112C255.207 69.264 257.767 70.928 259.879 73.104C262.055 75.216 263.719 77.776 264.871 80.784C266.087 83.792 266.695 87.152 266.695 90.864ZM242.215 77.904C239.207 77.904 236.871 79.024 235.207 81.264C233.543 83.504 232.711 86.704 232.711 90.864C232.711 95.152 233.511 98.416 235.111 100.656C236.775 102.832 239.143 103.92 242.215 103.92C245.287 103.92 247.623 102.8 249.223 100.56C250.887 98.32 251.719 95.088 251.719 90.864C251.719 86.768 250.887 83.6 249.223 81.36C247.559 79.056 245.223 77.904 242.215 77.904ZM345.327 113.904C344.623 114.096 343.695 114.256 342.543 114.384C341.391 114.576 340.111 114.672 338.703 114.672C335.823 114.672 333.743 114.224 332.463 113.328C331.247 112.368 330.639 110.544 330.639 107.856V84.048C330.639 81.936 330.063 80.4 328.911 79.44C327.759 78.416 326.191 77.904 324.207 77.904C322.927 77.904 321.711 78.128 320.559 78.576C319.471 79.024 318.479 79.6 317.583 80.304C317.647 80.624 317.679 80.944 317.679 81.264C317.743 81.584 317.775 81.904 317.775 82.224V113.904C317.071 114.096 316.143 114.256 314.991 114.384C313.839 114.576 312.559 114.672 311.151 114.672C308.271 114.672 306.191 114.224 304.911 113.328C303.695 112.368 303.087 110.544 303.087 107.856V84.048C303.087 81.936 302.447 80.4 301.167 79.44C299.887 78.416 298.319 77.904 296.463 77.904C295.119 77.904 293.903 78.128 292.815 78.576C291.727 78.96 290.831 79.344 290.127 79.728V113.904C289.487 114.096 288.591 114.256 287.439 114.384C286.287 114.576 285.007 114.672 283.599 114.672C280.719 114.672 278.639 114.224 277.359 113.328C276.079 112.368 275.439 110.544 275.439 107.856V78.192C275.439 76.528 275.791 75.184 276.495 74.16C277.199 73.136 278.191 72.176 279.471 71.28C281.583 69.808 284.175 68.624 287.247 67.728C290.383 66.832 293.647 66.384 297.039 66.384C299.727 66.384 302.255 66.768 304.623 67.536C307.055 68.24 309.263 69.36 311.247 70.896C313.167 69.616 315.343 68.56 317.775 67.728C320.207 66.832 323.087 66.384 326.415 66.384C328.911 66.384 331.279 66.704 333.519 67.344C335.823 67.92 337.839 68.912 339.567 70.32C341.295 71.664 342.671 73.456 343.695 75.696C344.783 77.872 345.327 80.528 345.327 83.664V113.904ZM368.637 97.008C369.533 99.696 371.101 101.616 373.341 102.768C375.581 103.856 378.173 104.4 381.117 104.4C383.805 104.4 386.333 104.048 388.701 103.344C391.069 102.576 392.989 101.744 394.461 100.848C395.421 101.488 396.221 102.32 396.861 103.344C397.501 104.368 397.821 105.488 397.821 106.704C397.821 108.176 397.373 109.456 396.477 110.544C395.581 111.632 394.333 112.56 392.733 113.328C391.197 114.032 389.341 114.544 387.165 114.864C385.053 115.248 382.717 115.44 380.157 115.44C376.381 115.44 372.893 114.928 369.693 113.904C366.493 112.816 363.741 111.248 361.437 109.2C359.133 107.088 357.309 104.464 355.965 101.328C354.685 98.192 354.045 94.512 354.045 90.288C354.045 86.192 354.685 82.64 355.965 79.632C357.309 76.624 359.069 74.128 361.245 72.144C363.485 70.16 366.013 68.72 368.829 67.824C371.709 66.864 374.653 66.384 377.661 66.384C380.925 66.384 383.901 66.896 386.589 67.92C389.341 68.88 391.677 70.256 393.597 72.048C395.581 73.84 397.117 75.984 398.205 78.48C399.293 80.976 399.837 83.696 399.837 86.64C399.837 88.688 399.293 90.224 398.205 91.248C397.117 92.272 395.581 92.944 393.597 93.264L368.637 97.008ZM377.757 77.232C375.005 77.232 372.701 78.096 370.845 79.824C369.053 81.488 367.997 83.92 367.677 87.12L386.013 84.144C385.885 82.48 385.149 80.912 383.805 79.44C382.461 77.968 380.445 77.232 377.757 77.232Z" fill="#2194C1"/>
</svg>
